<svg xmlns="http://www.w3.org/2000/svg" width="1438.959" height="1474.346" viewBox="0 0 1438.959 1474.346">
  <g id="bakgrunn-logo" transform="translate(0 509.001) rotate(-30)">
    <path id="Union_5" data-name="Union 5" d="M173.69,1114.684a52.33,52.33,0,0,1-52.108-55.082l28.01-518.37C60.14,508.575,0,427.151,0,313.506,0,238.614,33.219,43.329,34.955,33.1c6.948-44.2,98.351-44.849,104,2.395V342.9c2.823,7.4,32.786,6.965,34.739,0,3.039-55.082,17.153-303.055,17.369-308.714,7.165-45.285,97.051-45.285,104,0,.436,5.876,14.33,253.632,17.369,308.714,1.956,6.965,32.133,7.4,34.739,0V35.491C352.809-11.537,444.431-11.1,451.38,33.1c1.736,10.233,34.955,205.735,34.955,280.411,0,113.865-60.359,195.069-149.592,227.726l18.812,348.188C436.85,822.405,568.9,760,763.352,777.057a20.275,20.275,0,0,0,3.525-40.4c-164.421-14.425-284.643,24.383-370,75.032-.134-8.664-.4-17.209.368-26.046C408.925,651.83,526.667,552.76,660.116,564.466L760.831,573.3c79.819,7,153.391-29.286,198.356-93.906,9.732-14.156,29.823-11.758,35.5,4.642,19.251,55.625,27.118,122.465,21.591,185.838-18.991,217.642-173.614,383.186-372.524,380.237-102.8,1.92-175.734-57.779-211.688-116.778A372.853,372.853,0,0,0,361.394,997.5l3.355,62.1a52.321,52.321,0,0,1-52.108,55.082Z" fill="#41b83d"/>
  </g>
</svg>
