<svg id="chef" xmlns="http://www.w3.org/2000/svg" width="24" height="24" viewBox="0 0 24 24">
  <g id="Group_439" data-name="Group 439">
    <g id="Group_438" data-name="Group 438">
      <path id="Path_294" data-name="Path 294" d="M107.751,213.875a.542.542,0,1,0-1.085,0c0,1.424,1.571,3.379,1.75,3.6a.543.543,0,1,0,.839-.688A6.573,6.573,0,0,1,107.751,213.875Z" transform="translate(-101.207 -202.41)" fill="#444"/>
      <path id="Path_295" data-name="Path 295" d="M311.506,213.333a.542.542,0,0,0-.542.542,6.6,6.6,0,0,1-1.5,2.91.542.542,0,0,0,.839.688c.179-.219,1.75-2.174,1.75-3.6A.542.542,0,0,0,311.506,213.333Z" transform="translate(-293.506 -202.41)" fill="#444"/>
      <path id="Path_296" data-name="Path 296" d="M224.542,213.333a.542.542,0,0,0-.542.542v3.253a.542.542,0,0,0,1.085,0v-3.253A.542.542,0,0,0,224.542,213.333Z" transform="translate(-212.542 -202.41)" fill="#444"/>
      <path id="Path_297" data-name="Path 297" d="M18,2.182a5.713,5.713,0,0,0-1.035.11,6.524,6.524,0,0,0-9.931,0A5.719,5.719,0,0,0,6,2.182,6,6,0,0,0,3.286,13.529l-.011,8.243A2.226,2.226,0,0,0,5.5,24h13a2.228,2.228,0,0,0,2.226-2.226V13.521A6,6,0,0,0,18,2.182Zm1.636,19.593A1.136,1.136,0,0,1,18.5,22.909H5.5a1.135,1.135,0,0,1-1.135-1.136l0-2.137H19.636Zm.338-9.1a.489.489,0,0,0-.082.042.546.546,0,0,0-.25.383.527.527,0,0,0-.006.092v5.357H4.37l.007-5.35a.562.562,0,0,0-.005-.089.547.547,0,0,0-.086-.226.54.54,0,0,0-.162-.158.571.571,0,0,0-.086-.044A4.907,4.907,0,0,1,6,3.273c.106,0,.217.013.327.021a6.5,6.5,0,0,0-.873,3.251.545.545,0,0,0,1.091,0,5.455,5.455,0,1,1,10.909,0,.545.545,0,0,0,1.091,0,6.5,6.5,0,0,0-.873-3.251c.11-.009.221-.021.327-.021a4.906,4.906,0,0,1,1.974,9.4Z" fill="#444"/>
    </g>
  </g>
</svg>
