<svg xmlns="http://www.w3.org/2000/svg" width="63.604" height="72.005" viewBox="0 0 63.604 72.005"><g transform="translate(-29.867)"><g transform="translate(29.867 62.404)"><path d="M83.871,443.733h-52.8a1.2,1.2,0,0,0-1.2,1.2,8.41,8.41,0,0,0,8.4,8.4h38.4a8.411,8.411,0,0,0,8.4-8.4A1.2,1.2,0,0,0,83.871,443.733Zm-7.2,7.2h-38.4a6.011,6.011,0,0,1-5.879-4.8H82.549A6.01,6.01,0,0,1,76.67,450.934Z" transform="translate(-29.867 -443.733)"/></g><g transform="translate(33.467 34.802)"><path d="M102.27,247.467h-45.6a1.2,1.2,0,0,0-1.2,1.2v4.8c0,14.855,12,23.427,12.513,23.784a1.2,1.2,0,0,0,.688.217h21.6a1.2,1.2,0,0,0,.688-.217c.511-.358,12.513-8.93,12.513-23.784v-4.8A1.2,1.2,0,0,0,102.27,247.467Zm-1.2,6c0,12.354-9.413,20.22-11.2,21.6h-20.8c-1.788-1.381-11.2-9.248-11.2-21.6v-3.6h43.2v3.6Z" transform="translate(-55.467 -247.467)"/></g><g transform="translate(74.27 37.202)"><path d="M354,264.533h-2.4v2.4H354a8.4,8.4,0,1,1,0,16.8h-8.4v2.4H354a10.8,10.8,0,1,0,0-21.6Z" transform="translate(-345.6 -264.533)"/></g><g transform="translate(76.67 42.003)"><path d="M368.666,298.667h-2.4v2.4h2.4a3.6,3.6,0,1,1,0,7.2h-6v2.4h6a6,6,0,1,0,0-12Z" transform="translate(-362.666 -298.667)"/></g><g transform="translate(33.467)"><path d="M90.269,0V2.4a3.6,3.6,0,0,1-3.6,3.6h-12.6a7.8,7.8,0,1,0,0,15.6h.6a1.2,1.2,0,1,1,0,2.4h-10.8a8.41,8.41,0,0,0-8.4,8.4h2.4a6.007,6.007,0,0,1,6-6h10.8a3.6,3.6,0,0,0,0-7.2h-.6a5.4,5.4,0,0,1,0-10.8h12.6a6.007,6.007,0,0,0,6-6V0Z" transform="translate(-55.467)"/></g><g transform="translate(64.669)"><path d="M303.735,0V4.8a6.007,6.007,0,0,1-6,6h-16.8a3.6,3.6,0,1,0,0,7.2h4.8a6.007,6.007,0,0,1,6,6v8.4h2.4V24a8.41,8.41,0,0,0-8.4-8.4h-4.8a1.2,1.2,0,1,1,0-2.4h16.8a8.411,8.411,0,0,0,8.4-8.4V0Z" transform="translate(-277.333)"/></g></g></svg>