<svg xmlns="http://www.w3.org/2000/svg" width="80.362" height="72" viewBox="0 0 80.362 72"><g transform="translate(0 -26.637)"><g transform="translate(24.705 52.479)"><g transform="translate(0 0)"><path d="M163.769,192.471a3.664,3.664,0,0,0-6.366,2.409,1.177,1.177,0,0,0,1.157,1.2h.02a1.177,1.177,0,0,0,1.177-1.157,1.307,1.307,0,0,1,1.331-1.286,1.292,1.292,0,0,1,.943.424,1.177,1.177,0,0,0,1.738-1.588Z" transform="translate(-157.402 -191.28)"/></g></g><g transform="translate(31.013 55.461)"><g transform="translate(0 0)"><path d="M203.915,212.327a3.363,3.363,0,0,0-6.247.149,1.177,1.177,0,1,0,2.207.819,1.012,1.012,0,0,1,1.3-.6.994.994,0,0,1,.576.549,1.177,1.177,0,0,0,2.167-.921Z" transform="translate(-197.594 -210.283)"/></g></g><g transform="translate(41.803 46.736)"><g transform="translate(0 0)"><path d="M269.457,155.037a1.177,1.177,0,0,0-1.665,0l-1.11,1.112a1.177,1.177,0,1,0,1.666,1.663l1.11-1.112A1.177,1.177,0,0,0,269.457,155.037Z" transform="translate(-266.339 -154.693)"/></g></g><g transform="translate(34.852 62.277)"><path d="M224.8,253.709h-1.569a1.177,1.177,0,1,0,0,2.354H224.8a1.177,1.177,0,0,0,0-2.354Z" transform="translate(-222.049 -253.709)"/></g><g transform="translate(46.881 62.277)"><path d="M301.438,253.709h-1.569a1.177,1.177,0,0,0,0,2.354h1.569a1.177,1.177,0,1,0,0-2.354Z" transform="translate(-298.692 -253.709)"/></g><g transform="translate(0 26.637)"><g transform="translate(0 0)"><path d="M80.324,83.5l-.307-1.655a2.233,2.233,0,0,0-2.6-1.788l-6.241,1.146L74,79.318a2.224,2.224,0,0,0,.7-2.947l-.855-1.514a2.226,2.226,0,0,0-2.236-1.115,29.777,29.777,0,0,0,.477-5.317,1.968,1.968,0,0,0-1.17-1.8,9.027,9.027,0,0,0,.072-6.83,1.429,1.429,0,0,0-.8-.8,8.955,8.955,0,0,0-3.328-.639q-.219,0-.437.011a6.206,6.206,0,0,0-7.477-5.775,9.7,9.7,0,0,0-.549-5.181,1.447,1.447,0,0,0-.814-.821,9.675,9.675,0,0,0-8.745.8,11.642,11.642,0,0,0-2.772-4.435,2,2,0,0,0-2.829,0l-5.7,5.713a5.917,5.917,0,0,0-3.949-1.5,5.953,5.953,0,0,0-4.25,1.784,5.916,5.916,0,0,0-4.389-.313v-4.4a5.558,5.558,0,0,0-5.45-5.554v-2.5a1.963,1.963,0,0,0,1.627-1.931V28.6a1.964,1.964,0,0,0-1.962-1.962H9.6A1.964,1.964,0,0,0,7.637,28.6v5.657a1.963,1.963,0,0,0,1.627,1.931v2.5a5.557,5.557,0,0,0-5.45,5.554V78.594A11.244,11.244,0,0,0,0,86.953C0,93.4,5.654,98.637,12.6,98.637l47.116-.014a5.388,5.388,0,0,0,5.332-6.231l9.411,1.691a2.248,2.248,0,0,0,.4.035,2.232,2.232,0,0,0,2.209-1.9l.255-1.71a2.226,2.226,0,0,0-1.709-2.5L72.3,87.246,78.532,86.1a2.229,2.229,0,0,0,1.792-2.6ZM66.866,60.712a6.6,6.6,0,0,1,2.075.333,6.667,6.667,0,0,1-.563,5.413H65.208l1.012-1.014a1.177,1.177,0,0,0-1.667-1.663l-.535.537a5.46,5.46,0,0,0-1.265-2.173A6.582,6.582,0,0,1,66.866,60.712Zm-6.639-5.9a3.866,3.866,0,0,1,3.855,3.867c0,.04,0,.079,0,.118a8.944,8.944,0,0,0-3.36,1.993c-.155-.059-.313-.113-.474-.158a5.461,5.461,0,0,0-3.254-4.048A3.849,3.849,0,0,1,60.228,54.814Zm-6.223-6.557a7.292,7.292,0,0,1,2.342.385,7.375,7.375,0,0,1-.291,5.436,6.252,6.252,0,0,0-1.508,2.091,5.557,5.557,0,0,0-.628.072,5.5,5.5,0,0,0-2.5,1.141,6.23,6.23,0,0,0-.89-1.236l2.7-2.706a1.177,1.177,0,0,0-1.667-1.663l-2.95,2.957A6.153,6.153,0,0,0,46.8,54.2a7.347,7.347,0,0,1,7.2-5.942Zm-9.02,18.2h-1.02a1.176,1.176,0,0,0-2.19,0h-1.2a1.177,1.177,0,0,0-1.836-1.446l-1.11,1.112a1.171,1.171,0,0,0-.233.334H35a9.311,9.311,0,0,1-1.51-4.751H52.166a9.311,9.311,0,0,1-1.51,4.751H48.163a1.172,1.172,0,0,0-.233-.335l-1.109-1.112a1.177,1.177,0,0,0-1.836,1.447Zm-2.738-7.105a3.852,3.852,0,0,1,7.443,0H42.247Zm2.407-14.475a9.309,9.309,0,0,1,2.223,4.157,9.7,9.7,0,0,0-1.494,2.143A1.17,1.17,0,0,0,44.77,51H43.2a1.177,1.177,0,0,0,0,2.354h1.376a9.748,9.748,0,0,0-.181.986,6.156,6.156,0,0,0-1.332.52A5.942,5.942,0,0,0,39.442,52.1l0-.01a5.959,5.959,0,0,0-.473-1.508ZM23.375,55.5a3.553,3.553,0,0,1-.156-.59,3.593,3.593,0,0,1,2.924-4.146,3.631,3.631,0,0,1,.621-.054,3.557,3.557,0,0,1,2.143.715,1.177,1.177,0,0,0,1.686-.293,3.564,3.564,0,0,1,2.381-1.558,3.632,3.632,0,0,1,.622-.054A3.57,3.57,0,0,1,37.12,52.49a3.608,3.608,0,0,1,.052.61,1.177,1.177,0,0,0,1.074,1.171A3.582,3.582,0,0,1,41.2,56.381a6.206,6.206,0,0,0-1.36,2.972H33.129a2,2,0,0,0-1.85,1.245,8.983,8.983,0,0,0-8.37-.908,1.427,1.427,0,0,0-.8.8,9.018,9.018,0,0,0-.549,2.092,3.582,3.582,0,0,1,1.2-5.615A1.177,1.177,0,0,0,23.375,55.5Zm3.509,10.636.321.322H24.378a6.67,6.67,0,0,1-.216-4.721A6.622,6.622,0,0,1,31.4,63.88a11.629,11.629,0,0,0,.9,2.578H30.531l-1.98-1.985a1.177,1.177,0,0,0-1.667,1.663Zm-5.013.322h-4.2A3.872,3.872,0,0,1,19.5,63.773a5.918,5.918,0,0,0,2.147,1.779A9.1,9.1,0,0,0,21.871,66.458ZM9.991,28.991h8.788v4.872H9.991Zm7.161,7.226v2.463H11.618V36.217ZM6.168,49.011h7.644a1.177,1.177,0,1,0,0-2.354H6.168v-2.42a3.2,3.2,0,0,1,3.192-3.2H19.41a3.2,3.2,0,0,1,3.192,3.2v2.42H20.4a1.177,1.177,0,0,0,0,2.354h2.2v1.045a5.933,5.933,0,0,0-1.7,5.256l0,.012a5.949,5.949,0,0,0-2.494,5.912c.023.135.053.268.085.4a6.242,6.242,0,0,0-1.569,1.233H6.168Zm0,16.211h9.388a6.176,6.176,0,0,0-.256,1.236h-.2a1.968,1.968,0,0,0-1.965,1.967,29.789,29.789,0,0,0,.51,5.5c-.338-.027-.685-.042-1.038-.042a10.727,10.727,0,0,0-3.819.636c-1.589.628-2.028,1.519-2.124,2.135-.168.084-.334.172-.5.263V65.222ZM21.074,79.683a4.457,4.457,0,0,1,.833.835h-.044A7.314,7.314,0,0,1,18.639,79.5a8.484,8.484,0,0,1-1.35-.917,1.177,1.177,0,0,0-1.522,0,8.435,8.435,0,0,1-1.35.917,7.314,7.314,0,0,1-3.225,1.022h-.044a4.451,4.451,0,0,1,.833-.836,1.177,1.177,0,0,0-.6-2.088,5.624,5.624,0,0,1-2.215-.64,6.7,6.7,0,0,1,3.442-.718,7.337,7.337,0,0,1,3.342.654,1.178,1.178,0,0,0,1.153,0,7.341,7.341,0,0,1,3.343-.654,6.7,6.7,0,0,1,3.442.718,5.62,5.62,0,0,1-2.216.64,1.177,1.177,0,0,0-.6,2.088ZM18.719,94.011l.04.218a5.361,5.361,0,0,0,.848,2.053h-7c-5.652,0-10.25-4.185-10.25-9.329a9.247,9.247,0,0,1,5.312-8.172,5.058,5.058,0,0,0,1.354.694,2.789,2.789,0,0,0-.4,1.164,1.917,1.917,0,0,0,.468,1.452,2.672,2.672,0,0,0,2.1.783,9.722,9.722,0,0,0,4.365-1.317q.514-.285.971-.6.455.314.971.6a9.726,9.726,0,0,0,4.365,1.317h0a2.672,2.672,0,0,0,2.1-.783,1.916,1.916,0,0,0,.468-1.452,2.789,2.789,0,0,0-.4-1.164,5.068,5.068,0,0,0,1.354-.694,9.524,9.524,0,0,1,5.045,6.057L22.108,88A5.383,5.383,0,0,0,18.719,94.011Zm43.344,1.164a3.046,3.046,0,0,1-2.344,1.094H58.484L57.712,92.1a1.177,1.177,0,0,0-2.315.429l.693,3.74-4.05,0-.522-2.818a1.177,1.177,0,0,0-2.315.429l.443,2.391-9.421,0-.709-3.828a1.177,1.177,0,0,0-2.315.429l.63,3.4-13.756.005h0a3.044,3.044,0,0,1-3-2.482l-.04-.218a3.029,3.029,0,0,1,1.91-3.38l4.627-1.758.345,1.86a1.177,1.177,0,0,0,1.156.963,1.193,1.193,0,0,0,.216-.02,1.177,1.177,0,0,0,.943-1.372l-.423-2.281,6.868-2.609a1.177,1.177,0,0,0-.836-2.2L32.643,84a11.929,11.929,0,0,0-6.254-7.345c-.1-.617-.535-1.508-2.124-2.135a10.727,10.727,0,0,0-3.819-.636,11.942,11.942,0,0,0-2.741.305v-.711a1.176,1.176,0,0,0-1.9-.924,27.5,27.5,0,0,1-.307-3.74H53.836a1.177,1.177,0,0,0,0-2.354h-.482a11.653,11.653,0,0,0,1.173-5.1,2,2,0,0,0-1.807-1.991,3.1,3.1,0,0,1,1.6-.8,3.176,3.176,0,0,1,.542-.047A3.111,3.111,0,0,1,57.937,61.1a3.148,3.148,0,0,1,.046.532A1.177,1.177,0,0,0,59.057,62.8a3.121,3.121,0,0,1,2.8,2.573,3.077,3.077,0,0,1-.008,1.084H60.585a1.177,1.177,0,0,0,0,2.354h9.149a27.134,27.134,0,0,1-.826,6.315l-6.38,3.766a5.4,5.4,0,0,0-7.116-3.546L42.274,80.34a1.177,1.177,0,0,0,.836,2.2l1.731-.657.537,2.9a1.178,1.178,0,0,0,1.156.963,1.192,1.192,0,0,0,.216-.02,1.177,1.177,0,0,0,.943-1.372l-.615-3.323,9.171-3.484a3.055,3.055,0,0,1,2.583.19,3.025,3.025,0,0,1,1.5,2.092l2.381,12.857A3.011,3.011,0,0,1,62.063,95.175Zm4.2-9.214a1.177,1.177,0,0,0-.051,2.305l8.764,2.01-.219,1.469L64.6,89.919,63.01,81.344l8.85-5.224.737,1.305-7.465,4.99A1.177,1.177,0,0,0,66,84.551L77.725,82.4l.261,1.409Z" transform="translate(0 -26.637)"/></g></g></g></svg>