<svg xmlns="http://www.w3.org/2000/svg" width="301" height="267.633" viewBox="0 0 301 267.633"><g transform="translate(15971 6770)"><path d="M60.064,256.772V214H18A18,18,0,0,1,0,196V18A18,18,0,0,1,18,0H283a18,18,0,0,1,18,18V196a18,18,0,0,1-18,18H122.888c-10.37,10.629-38.591,39.438-49.556,49.453-3.322,3.035-5.812,4.18-7.679,4.179C59.9,267.631,60.064,256.772,60.064,256.772Z" transform="translate(-15971 -6770)" fill="#ef5362"/><circle cx="16.5" cy="16.5" r="16.5" transform="translate(-15873 -6717)" fill="#fff"/><circle cx="16.5" cy="16.5" r="16.5" transform="translate(-15800 -6717)" fill="#fff"/><path d="M46.434,0H57.782C82.12,0,106,19.73,106,44.068A7.932,7.932,0,0,1,98.068,52H7.932A7.932,7.932,0,0,1,0,44.068C0,19.73,22.1,0,46.434,0Z" transform="translate(-15873 -6654)" fill="#fff"/></g></svg>