<svg id="Layer_1" data-name="Layer 1" xmlns="http://www.w3.org/2000/svg" viewBox="0 0 500 125"><defs><style>.cls-1{isolation:isolate;}.cls-2{fill:#3da848;}.cls-3{fill:#333;}</style></defs><title>horizontal-logo</title><g id="Component_654_1" data-name="Component 654 1"><g id="VegFood" class="cls-1"><g class="cls-1"><path class="cls-2" d="M175.39,42.28,152.82,94.42H140.91L118.42,42.28h13l15.86,37.24L163.4,42.28Z"/><path class="cls-2" d="M217.32,77.66H187c1.11,5,5.36,8,11.47,8a13.56,13.56,0,0,0,10.05-3.87l6.18,6.7C211,92.78,205.4,95,198.18,95c-13.85,0-22.87-8.71-22.87-20.63s9.16-20.63,21.38-20.63c11.77,0,20.85,7.9,20.85,20.78C217.54,75.42,217.39,76.69,217.32,77.66Zm-30.46-6.78h19.73a9.51,9.51,0,0,0-9.83-8.34C191.48,62.54,187.68,65.74,186.86,70.88Z"/><path class="cls-2" d="M269,54.35V87.71c0,14.9-8.05,21.75-22.5,21.75-7.59,0-15-1.86-19.66-5.51l4.62-8.34c3.42,2.75,9,4.54,14.15,4.54,8.19,0,11.77-3.72,11.77-11V87.49c-3.06,3.35-7.45,5-12.66,5-11.1,0-20-7.67-20-19.36s8.94-19.37,20-19.37c5.58,0,10.2,1.86,13.25,5.74V54.35ZM257.54,73.12c0-5.89-4.4-9.83-10.51-9.83s-10.57,3.94-10.57,9.83S240.93,83,247,83,257.54,79,257.54,73.12Z"/></g><g class="cls-1"><path class="cls-3" d="M295.07,52V65.74H319.2v9.68H295.07v19H283V42.28h39.4V52Z"/><path class="cls-3" d="M328.14,74.38c0-12.06,9.31-20.63,22-20.63s22,8.57,22,20.63S362.92,95,350.18,95,328.14,86.45,328.14,74.38Zm32.25,0c0-6.92-4.4-11.09-10.21-11.09S339.9,67.46,339.9,74.38s4.47,11.1,10.28,11.1S360.39,81.31,360.39,74.38Z"/><path class="cls-3" d="M379.3,74.38c0-12.06,9.31-20.63,22.05-20.63s22,8.57,22,20.63S414.08,95,401.35,95,379.3,86.45,379.3,74.38Zm32.25,0c0-6.92-4.39-11.09-10.2-11.09s-10.28,4.17-10.28,11.09,4.47,11.1,10.28,11.1S411.55,81.31,411.55,74.38Z"/><path class="cls-3" d="M474.26,39.15V94.42h-11.1V89.8C460.26,93.3,456,95,450.65,95c-11.32,0-20-8-20-20.63s8.72-20.63,20-20.63c4.91,0,9.09,1.57,12,4.84V39.15Zm-11.4,35.23c0-6.92-4.47-11.09-10.2-11.09s-10.28,4.17-10.28,11.09,4.47,11.1,10.28,11.1S462.86,81.31,462.86,74.38Z"/></g></g></g><g id="logo-icoon"><path id="Union_5" data-name="Union 5" class="cls-2" d="M24.73,114l.27-4.49v.21l2.49-46.54A20.62,20.62,0,0,1,14,42.72a239.72,239.72,0,0,1,3.15-25.19,2.35,2.35,0,0,1,.14-.52l.44-3H27v9h0V45.6c.24.66,2.7.61,2.86,0C30,42.12,30.65,30.16,31,23h0V14H41v8.83c.36,7.05,1,18.89,1.15,22.35.16.6,2.65.65,2.85,0V23.07l1,0V14h8.08l.44,3a2.38,2.38,0,0,1,.14.54,231.84,231.84,0,0,1,3.15,25.18A20.62,20.62,0,0,1,44.35,63.18L46,94.45c7.32-6,19.21-11.62,36.73-10.1a1.81,1.81,0,0,0,.31-3.61h0a54.42,54.42,0,0,0-33.31,6.72,22.65,22.65,0,0,1,0-2.33c1-12,23.63-20.13,23.63-20.13h-.36l9,.78a19.34,19.34,0,0,0,17.69-8.36,1.76,1.76,0,0,1,2.43-.56,1.72,1.72,0,0,1,.75,1,41.46,41.46,0,0,1,1.92,16.55c-1.71,19.36-15.51,34.1-33.25,33.85A21.53,21.53,0,0,1,52.73,97.83a33.86,33.86,0,0,0-6.34,5.73l.18,3.25.77,7.19Z"/></g></svg>