<svg xmlns="http://www.w3.org/2000/svg" width="39.603" height="72.005" viewBox="0 0 39.603 72.005"><g transform="translate(-115.2)"><g transform="translate(120 14.401)"><g transform="translate(0)"><path d="M163.734,102.4a14.417,14.417,0,0,0-14.4,14.4,1.2,1.2,0,0,0,1.2,1.2h26.4a1.2,1.2,0,0,0,1.2-1.2A14.417,14.417,0,0,0,163.734,102.4Zm-11.941,13.2a12,12,0,0,1,23.882,0Z" transform="translate(-149.333 -102.4)"/></g></g><g transform="translate(128.401 4.8)"><g transform="translate(0)"><path d="M215.066,34.133a6,6,0,1,0,6,6A6.007,6.007,0,0,0,215.066,34.133Zm0,9.6a3.6,3.6,0,1,1,3.6-3.6A3.6,3.6,0,0,1,215.066,43.734Z" transform="translate(-209.066 -34.133)"/></g></g><g transform="translate(133.201)"><g transform="translate(0)"><path d="M243.2,6h2.4a3.6,3.6,0,0,1,3.6-3.6V0A6.007,6.007,0,0,0,243.2,6Z" transform="translate(-243.2)"/></g></g><g transform="translate(126.001 18.001)"><path d="M206.4,128v8.4a1.2,1.2,0,0,1-2.4,0v-3.6a3.6,3.6,0,0,0-7.2,0,1.2,1.2,0,1,1-2.4,0V128H192v4.8a3.6,3.6,0,1,0,7.2,0,1.2,1.2,0,0,1,2.4,0v3.6a3.6,3.6,0,1,0,7.2,0V128Z" transform="translate(-192 -128)"/></g><g transform="translate(115.2 27.602)"><g transform="translate(0)"><path d="M153.6,196.267H116.4a1.2,1.2,0,0,0-1.2,1.2v4.8a1.2,1.2,0,0,0,.907,1.164,7.508,7.508,0,0,1,5.361,5.182l3.891,12.945a10.029,10.029,0,0,0,9.632,7.11H135a10.018,10.018,0,0,0,9.644-7.176l3.893-12.89a7.5,7.5,0,0,1,5.356-5.171,1.2,1.2,0,0,0,.907-1.164v-4.8A1.2,1.2,0,0,0,153.6,196.267Zm-1.2,5.112a9.9,9.9,0,0,0-6.165,6.542L142.348,220.8a7.634,7.634,0,0,1-7.348,5.47h-.01a7.637,7.637,0,0,1-7.336-5.409l-3.885-12.926a9.92,9.92,0,0,0-6.17-6.555v-2.712h34.8v2.712Z" transform="translate(-115.2 -196.267)"/></g></g><g transform="translate(124.801 64.804)"><g transform="translate(0)"><path d="M196.667,460.8h-7.2a6.007,6.007,0,0,0-6,6,1.2,1.2,0,0,0,1.2,1.2h16.8a1.2,1.2,0,0,0,1.2-1.2A6.007,6.007,0,0,0,196.667,460.8Zm-10.6,4.8a3.607,3.607,0,0,1,3.4-2.4h7.2a3.607,3.607,0,0,1,3.4,2.4Z" transform="translate(-183.466 -460.8)"/></g></g><g transform="translate(133.201 58.804)"><g transform="translate(0)"><rect width="2.4" height="7.2"/></g></g><g transform="translate(122.752 32.754)"><path d="M190.5,232.9l-1.8,1.8a3.055,3.055,0,0,1-4.306,0,5.456,5.456,0,0,0-7.695,0,3.055,3.055,0,0,1-4.3,0l-1.8-1.8-1.7,1.7,1.8,1.8a5.459,5.459,0,0,0,7.695,0,3.056,3.056,0,0,1,4.306,0,5.457,5.457,0,0,0,7.7,0l1.8-1.8Z" transform="translate(-168.9 -232.9)"/></g></g></svg>