<svg xmlns="http://www.w3.org/2000/svg" width="24" height="24" viewBox="0 0 24 24"><g transform="translate(-215 -1722.5)"><path d="M12,0c3.259,0,3.667.014,4.948.072A8.826,8.826,0,0,1,19.86.63a5.882,5.882,0,0,1,2.126,1.384A5.882,5.882,0,0,1,23.37,4.14a8.826,8.826,0,0,1,.558,2.912C23.986,8.333,24,8.741,24,12s-.014,3.667-.072,4.948a8.826,8.826,0,0,1-.558,2.912,6.127,6.127,0,0,1-3.51,3.51,8.826,8.826,0,0,1-2.912.558C15.667,23.986,15.259,24,12,24s-3.667-.014-4.948-.072A8.826,8.826,0,0,1,4.14,23.37a5.882,5.882,0,0,1-2.126-1.384A5.882,5.882,0,0,1,.63,19.86a8.826,8.826,0,0,1-.558-2.912C.014,15.667,0,15.259,0,12S.014,8.333.072,7.052A8.857,8.857,0,0,1,.63,4.14,5.882,5.882,0,0,1,2.014,2.014,5.882,5.882,0,0,1,4.14.63,8.826,8.826,0,0,1,7.052.072C8.333.014,8.741,0,12,0Z" transform="translate(215 1722.5)" fill="#444"/><path d="M9.838,0C6.634,0,6.254.012,4.99.07A6.665,6.665,0,0,0,2.76.482a3.75,3.75,0,0,0-1.38.9,3.735,3.735,0,0,0-.9,1.38A6.631,6.631,0,0,0,.07,4.988C.012,6.254,0,6.632,0,9.838s.012,3.583.07,4.848a6.665,6.665,0,0,0,.413,2.23,3.75,3.75,0,0,0,.9,1.38,3.735,3.735,0,0,0,1.38.9,6.631,6.631,0,0,0,2.228.413c1.265.058,1.644.07,4.849.07s3.584-.012,4.848-.07a6.665,6.665,0,0,0,2.23-.413,3.972,3.972,0,0,0,2.278-2.278,6.631,6.631,0,0,0,.413-2.228c.058-1.266.07-1.644.07-4.849s-.012-3.583-.07-4.848a6.665,6.665,0,0,0-.413-2.23,3.718,3.718,0,0,0-.9-1.38,3.718,3.718,0,0,0-1.38-.9A6.631,6.631,0,0,0,14.687.07C13.421.012,13.043,0,9.838,0Z" transform="translate(217.162 1724.662)" fill="#fff"/><path d="M6.162,0A6.162,6.162,0,1,1,0,6.162,6.162,6.162,0,0,1,6.162,0Z" transform="translate(220.838 1728.338)" fill="#444"/><path d="M4,8A4,4,0,1,0,0,4,4,4,0,0,0,4,8Z" transform="translate(223 1730.5)" fill="#fff"/><path d="M2.88,1.44A1.44,1.44,0,1,1,1.44,0,1.44,1.44,0,0,1,2.88,1.44Z" transform="translate(231.966 1726.654)" fill="#444"/></g></svg>