<svg xmlns="http://www.w3.org/2000/svg" width="32" height="35.076" viewBox="0 0 32 35.076"><path d="M35079.078,18133.322l.094-1.582c0-.051,0-.1,0-.154l.879-16.248a7.2,7.2,0,0,1-4.7-7.137,83.139,83.139,0,0,1,1.1-8.793.71.71,0,0,1,.047-.182l.152-.98h3.078v3.1l-.012,0v7.783c.09.229,1.031.211,1.094,0,.066-1.2.3-5.318.441-7.783l-.008,0v-3.1h3.488v3.084c.137,2.461.371,6.594.441,7.8.059.211,1.012.229,1.09,0v-7.787l-.016.008v-3.1h3.082l.156.975a1.013,1.013,0,0,1,.047.188,81.36,81.36,0,0,1,1.1,8.793,7.192,7.192,0,0,1-4.7,7.137l.586,10.92c2.555-2.1,6.707-4.057,12.824-3.527a.632.632,0,1,0,.105-1.26,18.978,18.978,0,0,0-11.629,2.344,8.073,8.073,0,0,1,.016-.811,7.62,7.62,0,0,1,8.258-6.934l3.172.273a6.8,6.8,0,0,0,6.227-2.943.621.621,0,0,1,1.121.15,14.524,14.524,0,0,1,.676,5.824c-.6,6.818-5.461,12.008-11.707,11.92a7.591,7.591,0,0,1-6.652-3.666,11.9,11.9,0,0,0-2.23,2.018l.063,1.145.273,2.531Z" transform="translate(-35075.352 -18098.246)" fill="#3da839"/></svg>