<svg xmlns="http://www.w3.org/2000/svg" width="83.077" height="72" viewBox="0 0 83.077 72"><g transform="translate(0 -34.133)"><g transform="translate(5.537 50.748)"><g transform="translate(0 0)"><path d="M99.206,136.533H41.052a6.923,6.923,0,1,0,0,13.846H49.36V147.61H41.052a4.154,4.154,0,1,1,0-8.308H99.206a4.154,4.154,0,1,1,0,8.308H86.744v2.769H99.206a6.923,6.923,0,1,0,0-13.846Z" transform="translate(-34.129 -136.533)"/></g></g><g transform="translate(41.537 59.056)"><g transform="translate(0 0)"><path d="M272.612,190.5v15.231a1.385,1.385,0,1,1-2.769,0V194.656a4.154,4.154,0,1,0-8.308,0,1.385,1.385,0,1,1-2.769,0v-6.923H256v6.923a4.154,4.154,0,1,0,8.308,0,1.385,1.385,0,1,1,2.769,0v11.077a4.154,4.154,0,1,0,8.308,0V190.5Z" transform="translate(-255.997 -187.733)"/></g></g><g transform="translate(5.537 61.825)"><g transform="translate(0 0)"><path d="M41.052,215.877a4.154,4.154,0,0,1,0-8.308H71.514V204.8H41.052a6.923,6.923,0,0,0,0,13.846H82.59v-2.769H41.052Z" transform="translate(-34.129 -204.8)"/></g></g><g transform="translate(58.153 61.825)"><g transform="translate(0 0)"><path d="M370.858,204.8H358.4v2.769h12.462a4.154,4.154,0,0,1,0,8.308H359.781v2.769h11.077a6.923,6.923,0,0,0,0-13.846Z" transform="translate(-358.396 -204.8)"/></g></g><g transform="translate(5.537 72.902)"><path d="M99.206,273.066H88.129v2.769H99.206a4.154,4.154,0,0,1,0,8.308H41.052a4.154,4.154,0,0,1,0-8.308H82.591v-2.769H41.052a6.923,6.923,0,0,0,0,13.846H99.206a6.923,6.923,0,1,0,0-13.846Z" transform="translate(-34.129 -273.066)"/></g><g transform="translate(5.537 83.979)"><path d="M99.206,341.333H41.052a6.923,6.923,0,0,0,0,13.846H99.206a6.923,6.923,0,1,0,0-13.846Zm0,11.077H41.052a4.154,4.154,0,1,1,0-8.308H99.206a4.154,4.154,0,1,1,0,8.308Z" transform="translate(-34.129 -341.333)"/></g><g transform="translate(34.614 39.671)"><g transform="translate(0 0)"><path d="M220.252,68.266a6.923,6.923,0,1,0,6.923,6.923A6.931,6.931,0,0,0,220.252,68.266Zm0,11.077a4.154,4.154,0,1,1,4.154-4.154A4.159,4.159,0,0,1,220.252,79.343Z" transform="translate(-213.329 -68.266)"/></g></g><g transform="translate(40.153 34.133)"><g transform="translate(0 0)"><path d="M247.463,41.056h2.769a4.159,4.159,0,0,1,4.154-4.154V34.133A6.931,6.931,0,0,0,247.463,41.056Z" transform="translate(-247.463 -34.133)"/></g></g><g transform="translate(-0.001 95.056)"><g transform="translate(0)"><path d="M82.748,410.09a1.382,1.382,0,0,0-1.056-.49H1.383a1.383,1.383,0,0,0-1.365,1.612,11.29,11.29,0,0,0,11.168,9.465h60.7a11.293,11.293,0,0,0,11.17-9.464A1.388,1.388,0,0,0,82.748,410.09Zm-10.86,7.818h-60.7a8.529,8.529,0,0,1-8.007-5.538H79.894A8.527,8.527,0,0,1,71.888,417.908Z" transform="translate(0.001 -409.6)"/></g></g></g></svg>