<svg xmlns="http://www.w3.org/2000/svg" xmlns:xlink="http://www.w3.org/1999/xlink" width="320" height="299" viewBox="0 0 320 299">
  <defs>
    <clipPath id="clip-path">
      <rect id="Rectangle_Copy_5" data-name="Rectangle Copy 5" width="320" height="299" transform="translate(-16022 -8825)" fill="#3db938"/>
    </clipPath>
  </defs>
  <g id="poster" transform="translate(-1056 -134)">
    <rect id="Rectangle_Copy_5-2" data-name="Rectangle Copy 5" width="320" height="299" transform="translate(1056 134)" fill="#3da839"/>
    <g id="Mask_Group_5" data-name="Mask Group 5" transform="translate(17078 8959)" clip-path="url(#clip-path)">
      <g id="logo-icoon" transform="translate(-16082.919 -8774.006) rotate(-30)">
        <path id="Union_5" data-name="Union 5" d="M3.722,367.072l.141-2.322,7.378-1.858.449,4.18Zm53.265-.054a17.168,17.168,0,0,1-17.1-18.07l9.19-170.057C19.732,168.178,0,141.466,0,104.183,0,79.614,10.9,15.548,11.469,12.191c2.28-14.5,32.269-14.713,34.121.786V113.826c.926,2.428,10.757,2.285,11.4,0,1-18.07,5.628-99.42,5.7-101.277,2.351-14.856,31.842-14.856,34.121,0,.143,1.928,4.7,83.207,5.7,101.277.642,2.285,10.543,2.428,11.4,0V12.977c1.852-15.428,31.913-15.285,34.193-.786.57,3.357,11.469,67.494,11.469,91.992,0,37.354-19.8,63.994-49.081,74.708l6.172,114.227c26.672-21.985,70-42.458,133.8-36.862A6.651,6.651,0,0,0,251.609,243c-53.946-4.732-93.39,8-121.395,24.615a82.242,82.242,0,0,1,.121-8.545,79.694,79.694,0,0,1,86.246-72.561l33.044,2.9c26.188,2.3,50.327-9.607,65.08-30.807a6.443,6.443,0,0,1,11.646,1.523c6.316,18.248,8.9,40.176,7.084,60.966-6.231,71.4-56.962,125.708-122.224,124.741-33.728.63-57.658-18.955-69.454-38.31a122.326,122.326,0,0,0-23.186,21.05l1.1,20.373a17.165,17.165,0,0,1-17.1,18.07ZM10.895,0h3.09l.3,1.886L10.895,3.1ZM7.641,2.475,5.894,3.1V0H9.379V3.1ZM1,1.889,1.3,0H4.378V3.1Z" transform="translate(0 -0.004)" fill="#41b83d"/>
      </g>
    </g>
  </g>
</svg>
