<svg xmlns="http://www.w3.org/2000/svg" width="72" height="72" viewBox="0 0 72 72"><g transform="translate(0 57.6)"><path d="M70.8,409.6H1.2A1.2,1.2,0,0,0,0,410.8,13.216,13.216,0,0,0,13.2,424H58.8A13.216,13.216,0,0,0,72,410.8,1.2,1.2,0,0,0,70.8,409.6Zm-12,12H13.2A10.815,10.815,0,0,1,2.466,412H69.533A10.814,10.814,0,0,1,58.8,421.6Z" transform="translate(0 -409.6)"/></g><g transform="translate(23.198 39.6)"><path d="M177.77,281.6h-.016a19.09,19.09,0,0,0-12.787,4.9l1.6,1.783A16.7,16.7,0,0,1,177.755,284h.013c6.65,0,12.336,3.473,14.485,8.845l2.23-.89C191.967,285.664,185.405,281.6,177.77,281.6Z" transform="translate(-164.967 -281.6)"/></g><g transform="translate(24.9 44.414)"><path d="M197.34,319.126a14.419,14.419,0,0,0-20.273,1.932l1.85,1.528a12,12,0,0,1,19.068.742l1.966-1.379A14.534,14.534,0,0,0,197.34,319.126Z" transform="translate(-177.067 -315.835)"/></g><g transform="translate(29.142 49.204)"><path d="M220.809,352.634a9.612,9.612,0,0,0-13.577.137l1.715,1.68a7.2,7.2,0,0,1,12.343,5.04h2.4A9.648,9.648,0,0,0,220.809,352.634Z" transform="translate(-207.232 -349.895)"/></g><g transform="translate(48 44.4)"><path d="M342.587,315.733h-1.253v2.4h1.2a13.324,13.324,0,0,1,13.2,12.1l2.39-.2A15.682,15.682,0,0,0,342.587,315.733Z" transform="translate(-341.334 -315.733)"/></g><g transform="translate(41.106 49.204)"><path d="M307.56,352.645a10.8,10.8,0,0,0-15.25.85l1.788,1.6a8.4,8.4,0,0,1,14.6,4.547l2.382-.3A10.808,10.808,0,0,0,307.56,352.645Z" transform="translate(-292.31 -349.895)"/></g><g transform="translate(43.333 53.989)"><path d="M315.448,384.108a6.007,6.007,0,0,0-7.3,4.325l2.326.6a3.6,3.6,0,0,1,6.974,0l2.326-.6A6,6,0,0,0,315.448,384.108Z" transform="translate(-308.147 -383.919)"/></g><g transform="translate(7.205 44.374)"><path d="M68.054,315.6a15.6,15.6,0,0,0-16.82,14.275l2.392.2a13.2,13.2,0,0,1,14.233-12.078,13.266,13.266,0,0,1,5.567,1.75l1.208-2.075A15.694,15.694,0,0,0,68.054,315.6Z" transform="translate(-51.234 -315.546)"/></g><g transform="translate(12.082 49.173)"><path d="M97.954,349.758a10.815,10.815,0,0,0-12.04,9.4l2.382.293a8.4,8.4,0,0,1,16.673,0l2.384-.293A10.785,10.785,0,0,0,97.954,349.758Z" transform="translate(-85.914 -349.675)"/></g><g transform="translate(16.994 54.01)"><path d="M128.17,384.269a6,6,0,0,0-7.322,4.288l2.322.607a3.6,3.6,0,0,1,6.967,0l2.321-.608A6,6,0,0,0,128.17,384.269Z" transform="translate(-120.848 -384.072)"/></g><g transform="translate(31.2 54)"><path d="M226.667,384a4.8,4.8,0,0,0-4.8,4.8h2.4a2.4,2.4,0,1,1,4.8,0h2.4A4.805,4.805,0,0,0,226.667,384Z" transform="translate(-221.867 -384)"/></g><g transform="translate(12 4.8)"><rect width="9.6" height="2.4"/></g><g transform="translate(14.4 9.6)"><rect width="7.2" height="2.4"/></g><g transform="translate(4.8)"><path d="M38.691,25.8a7.286,7.286,0,0,1,0-7.208,9.7,9.7,0,0,0,0-9.592,7.286,7.286,0,0,1,0-7.208A1.2,1.2,0,0,0,37.649,0H34.133V2.4h1.68a9.7,9.7,0,0,0,.794,7.8,7.286,7.286,0,0,1,0,7.208,9.7,9.7,0,0,0,0,9.592,7.286,7.286,0,0,1,0,7.208,9.639,9.639,0,0,0-.049,9.5,18.522,18.522,0,0,1,.924,2.468l2.3-.678a20.773,20.773,0,0,0-1.093-2.885,7.286,7.286,0,0,1,0-7.208A9.7,9.7,0,0,0,38.691,25.8Z" transform="translate(-34.133)"/></g><g transform="translate(10.973)"><path d="M139.057,8.748a6.4,6.4,0,0,0-6.548-6.192L97.542,3.584l-1.83-1.83A5.959,5.959,0,0,0,91.474,0H80.344A1.2,1.2,0,0,0,79.3.6a9.7,9.7,0,0,0,0,9.592,7.286,7.286,0,0,1,0,7.208A9.7,9.7,0,0,0,79.3,27a7.286,7.286,0,0,1,0,7.208,9.7,9.7,0,0,0,0,9.592,7.232,7.232,0,0,1,.432.9l2.227-.893a9.5,9.5,0,0,0-.576-1.193,7.286,7.286,0,0,1,0-7.208,9.7,9.7,0,0,0,0-9.592,7.286,7.286,0,0,1,0-7.208,9.559,9.559,0,0,0,.794-1.8h9.293a5.961,5.961,0,0,0,4.24-1.756l1.816-1.816,34.788,2.045c.125.007.3,0,.372.011a6.38,6.38,0,0,0,6.372-6.368Zm-6.371,4.136a1.062,1.062,0,0,0-.228-.006L97.13,10.8a1.182,1.182,0,0,0-.919.349l-2.2,2.2A3.577,3.577,0,0,1,91.471,14.4H82.636A9.68,9.68,0,0,0,81.385,9a7.292,7.292,0,0,1-.308-6.6h10.4a3.574,3.574,0,0,1,2.543,1.054l2.2,2.2a1.174,1.174,0,0,0,.883.35l35.483-1.045a3.966,3.966,0,1,1,.109,7.93Z" transform="translate(-78.033 0)"/></g><g transform="translate(15.772 15.396)"><path d="M115.51,119.892a7.286,7.286,0,0,1,0-7.207,9.618,9.618,0,0,0,1.043-2.672l-2.341-.529a7.242,7.242,0,0,1-.784,2.009,9.7,9.7,0,0,0,0,9.592,7.287,7.287,0,0,1,0,7.211,9.692,9.692,0,0,0-.328,8.957l2.166-1.031a7.288,7.288,0,0,1,.246-6.737A9.7,9.7,0,0,0,115.51,119.892Z" transform="translate(-112.157 -109.483)"/></g><g transform="translate(4.8 4.8)"><rect width="2.4" height="2.4"/></g><g transform="translate(4.8 9.6)"><rect width="3.6" height="2.4"/></g><g transform="translate(4.8 14.4)"><rect width="4.8" height="2.4"/></g></svg>