<svg xmlns="http://www.w3.org/2000/svg" width="118.486" height="118.501" viewBox="0 0 118.486 118.501">
  <g id="telescope-white" transform="translate(-4.756 -4.749)">
    <path id="Path_321" data-name="Path 321" d="M121.077,19.475a16.618,16.618,0,0,0-11.4-8.11L108.4,6.088A1.75,1.75,0,0,0,106.281,4.8l-9.8,2.373a1.751,1.751,0,0,0-1.289,2.113l.934,3.857L31.1,28.889A1.751,1.751,0,0,0,29.815,31l.627,2.589-11.808,2.86a1.751,1.751,0,0,0-1.289,2.113l.925,3.82L6.094,45.329A1.75,1.75,0,0,0,4.8,47.442l2.25,9.29a1.751,1.751,0,0,0,1.7,1.339,1.786,1.786,0,0,0,.413-.05l12.175-2.947.922,3.808a1.751,1.751,0,0,0,1.7,1.339,1.733,1.733,0,0,0,.413-.05l11.809-2.858.628,2.59a1.752,1.752,0,0,0,1.7,1.338,1.733,1.733,0,0,0,.413-.05l17.49-4.238a7.723,7.723,0,0,0,1.2,2.8L29.757,116.406a4.746,4.746,0,1,0,8.52,4.186L59.256,77.925V118.5a4.75,4.75,0,1,0,9.5,0V77.925l20.979,42.667A4.779,4.779,0,0,0,94,123.25a4.636,4.636,0,0,0,2.089-.488,4.743,4.743,0,0,0,2.171-6.354L70.4,59.749a7.671,7.671,0,0,0,1.07-6.44l32.481-7.876.936,3.862A1.751,1.751,0,0,0,107,50.584l9.8-2.374a1.749,1.749,0,0,0,1.289-2.113l-1.277-5.274a16.645,16.645,0,0,0,4.265-21.348ZM10.045,54.207,8.619,48.319l10.474-2.535,1.426,5.888Zm15.21,2.151-.912-3.767a.1.1,0,0,0-.006-.042.331.331,0,0,1-.014-.041L22.092,43.3v-.037c0-.012-.009-.023-.012-.036l-.917-3.784L31.271,37l4.1,16.918Zm42.305-3.3a4.225,4.225,0,0,1-.544,5.308l-.009.011a4.244,4.244,0,0,1-6.006,0l-.009-.011a4.246,4.246,0,1,1,6.566-5.312ZM35.135,119.049a1.248,1.248,0,0,1-2.3-.147,1.231,1.231,0,0,1,.062-.95L59.256,64.34v5.654Zm28.871.7a1.251,1.251,0,0,1-1.25-1.25V63.015a7.157,7.157,0,0,0,2.5,0V118.5a1.251,1.251,0,0,1-1.25,1.25Zm31.171-.848a1.247,1.247,0,0,1-.644.723,1.274,1.274,0,0,1-1.657-.577L68.756,69.994V64.34l26.36,53.615a1.227,1.227,0,0,1,.061.945ZM64.006,47.625a7.756,7.756,0,0,0-7.465,5.7L39.8,57.378l-5.546-22.9v-.017l-.625-2.581L96.952,16.544l6.173,25.487L69.7,50.136a7.723,7.723,0,0,0-5.694-2.511Zm43.869-.855-7.92-32.7a.127.127,0,0,0-.008-.054.268.268,0,0,1-.017-.05l-.922-3.8,6.4-1.55,8.868,36.608Zm2.73-31.556A13.094,13.094,0,0,1,115.882,37Z" fill="#e6e6e6"/>
    <path id="Path_322" data-name="Path 322" d="M77.035,23.942,63.594,27.2a1.75,1.75,0,1,0,.824,3.4L77.86,27.343a1.75,1.75,0,1,0-.825-3.4Z" fill="#e6e6e6"/>
    <path id="Path_323" data-name="Path 323" d="M90.05,22.59a1.746,1.746,0,0,0-2.113-1.29l-4,.968a1.75,1.75,0,1,0,.824,3.4l3.995-.968a1.749,1.749,0,0,0,1.294-2.11Z" fill="#e6e6e6"/>
  </g>
</svg>
