<svg xmlns="http://www.w3.org/2000/svg" width="24" height="23" viewBox="0 0 24 23"><path d="M24,2.723a8.673,8.673,0,0,1-2.827.913A5.751,5.751,0,0,0,23.338.426a8.993,8.993,0,0,1-3.129,1.406A4.6,4.6,0,0,0,16.616,0C13.9,0,11.694,2.6,11.694,5.806a6.82,6.82,0,0,0,.126,1.323A13.414,13.414,0,0,1,1.67,1.06,6.614,6.614,0,0,0,1,3.981a6.142,6.142,0,0,0,2.19,4.833A4.371,4.371,0,0,1,.964,8.09v.071a5.651,5.651,0,0,0,3.95,5.693,4.2,4.2,0,0,1-2.223.1,5.1,5.1,0,0,0,4.6,4.031A8.855,8.855,0,0,1,0,20.393,12.467,12.467,0,0,0,7.548,23c9.058,0,14.01-8.846,14.01-16.52,0-.253,0-.5-.013-.752a11.128,11.128,0,0,0,2.455-3" fill="#444"/></svg>