<svg id="Layer_1" data-name="Layer 1" xmlns="http://www.w3.org/2000/svg" viewBox="0 0 500 271"><defs><style>.cls-1{isolation:isolate;}.cls-2{fill:#3da848;}.cls-3{fill:#333;}</style></defs><title>vertical-logo</title><g id="VegFood" class="cls-1"><g class="cls-1"><path class="cls-2" d="M84.61,160.31l-29,67.11H40.22L11.27,160.31H28.05l20.42,47.94,20.7-47.94Z"/><path class="cls-2" d="M138.58,205.85h-39c1.44,6.43,6.9,10.36,14.76,10.36a17.48,17.48,0,0,0,13-5l8,8.63c-4.79,5.46-12,8.34-21.28,8.34-17.83,0-29.43-11.22-29.43-26.56S96.3,175.08,112,175.08c15.15,0,26.85,10.16,26.85,26.75C138.87,203,138.68,204.61,138.58,205.85Zm-39.21-8.72h25.4a12.25,12.25,0,0,0-12.65-10.74C105.31,186.39,100.42,190.51,99.37,197.13Z"/><path class="cls-2" d="M205.11,175.85v43c0,19.17-10.36,28-29,28-9.78,0-19.27-2.4-25.31-7.09L156.79,229c4.41,3.54,11.6,5.85,18.22,5.85,10.54,0,15.14-4.8,15.14-14.1v-2.2c-3.93,4.31-9.58,6.42-16.29,6.42-14.29,0-25.79-9.87-25.79-24.93s11.5-24.92,25.79-24.92c7.19,0,13.13,2.39,17.06,7.38v-6.61ZM190.34,200c0-7.57-5.65-12.65-13.51-12.65s-13.62,5.08-13.62,12.65,5.76,12.66,13.62,12.66S190.34,207.58,190.34,200Z"/></g><g class="cls-1"><path class="cls-3" d="M238.66,172.78v17.73h31.06V203H238.66v24.44H223.13V160.31h50.71v12.47Z"/><path class="cls-3" d="M281.22,201.63c0-15.53,12-26.55,28.38-26.55s28.28,11,28.28,26.55S326,228.19,309.6,228.19,281.22,217.17,281.22,201.63Zm41.51,0c0-8.91-5.66-14.28-13.13-14.28s-13.23,5.37-13.23,14.28,5.75,14.29,13.23,14.29S322.73,210.55,322.73,201.63Z"/><path class="cls-3" d="M347.08,201.63c0-15.53,12-26.55,28.37-26.55s28.29,11,28.29,26.55-11.89,26.56-28.29,26.56S347.08,217.17,347.08,201.63Zm41.51,0c0-8.91-5.66-14.28-13.14-14.28s-13.23,5.37-13.23,14.28,5.76,14.29,13.23,14.29S388.59,210.55,388.59,201.63Z"/><path class="cls-3" d="M469.31,156.29v71.13H455v-5.94c-3.74,4.51-9.2,6.71-16.1,6.71-14.58,0-25.79-10.35-25.79-26.56s11.21-26.55,25.79-26.55c6.32,0,11.69,2,15.43,6.23v-25Zm-14.67,45.34c0-8.91-5.75-14.28-13.14-14.28s-13.23,5.37-13.23,14.28,5.76,14.29,13.23,14.29S454.64,210.55,454.64,201.63Z"/></g></g><g id="logo-icoon"><path id="Union_5" data-name="Union 5" class="cls-2" d="M199.65,135.48l.35-5.87v-1l2.75-59.91a26.53,26.53,0,0,1-17.33-26.31A307.08,307.08,0,0,1,189.49,10a2.2,2.2,0,0,1,.17-.67l.56-3.84H202v11h-1V44.12c.35.81,4.05.75,4.3,0,.26-4.25,1.18-18.87,1.73-27.62h0V5.5h13V17.09c.52,9.08,1.39,24.32,1.65,28.77.21.77,3.35,0,3.35,0V17.14l1,0V5.5h11l.58,3.84a3.17,3.17,0,0,1,.17.69,299.38,299.38,0,0,1,4.06,32.42,26.5,26.5,0,0,1-17.33,26.31L226.61,109c9.42-7.75,24.73-15,47.29-13a2.33,2.33,0,1,0,.39-4.64h0A70,70,0,0,0,231.41,100a29.78,29.78,0,0,1,.06-3c1.34-15.46,30.42-25.53,30.42-25.53h.9l11.77,1a25.23,25.23,0,0,0,23.1-10.91,2.31,2.31,0,0,1,3.17-.74,2.25,2.25,0,0,1,1,1.29,54,54,0,0,1,2.51,21.61c-2.23,25.29-20.26,44.55-43.43,44.22a28.17,28.17,0,0,1-24.68-13.6,44.86,44.86,0,0,0-8.27,7.48l.23,4.25,1,9.39Z"/></g></svg>