<svg xmlns="http://www.w3.org/2000/svg" width="34" height="24" viewBox="0 0 34 24"><path d="M33.289,3.748A4.276,4.276,0,0,0,30.284.717C27.632,0,17,0,17,0S6.368,0,3.716.717A4.276,4.276,0,0,0,.711,3.748,44.98,44.98,0,0,0,0,12a44.984,44.984,0,0,0,.711,8.253,4.277,4.277,0,0,0,3.006,3.031C6.368,24,17,24,17,24s10.632,0,13.284-.716a4.276,4.276,0,0,0,3.006-3.031A44.984,44.984,0,0,0,34,12a44.98,44.98,0,0,0-.711-8.252" fill="#444"/><path d="M0,10.13,8.886,5.065,0,0V10.13" transform="translate(13.523 6.935)" fill="#fffffe"/></svg>